<svg data-v-fde0c5aa="" xmlns="http://www.w3.org/2000/svg" viewBox="0 0 300 300" class="iconLeftSlogan"><!----><defs data-v-fde0c5aa=""><!----></defs><rect data-v-fde0c5aa="" fill="#002C73" x="0" y="0" width="300px" height="300px" class="logo-background-square"></rect><defs data-v-fde0c5aa=""><!----></defs><g data-v-fde0c5aa="" id="298baa66-f316-4ddd-80bc-7ef002ad3496" fill="#ffffff" transform="matrix(3.0997580242919582,0,0,3.0997580242919582,121.31682596361622,113.86904038732753)"><path d="M0.73 13.80L0.56 13.33L0.88 13.24L0.88 13.24Q1.33 13.12 1.55 12.87L1.55 12.87L1.55 12.87Q1.78 12.63 1.78 12.10L1.78 12.10L1.78 5.03L1.78 5.03Q1.78 4.84 1.71 4.77L1.71 4.77L1.71 4.77Q1.64 4.69 1.47 4.69L1.47 4.69L0.66 4.69L0.49 4.17L0.49 4.17Q1.16 3.93 2.23 3.74L2.23 3.74L2.23 3.74Q3.29 3.56 4.28 3.56L4.28 3.56L4.28 3.56Q7.21 3.56 8.49 5.01L8.49 5.01L8.49 5.01Q9.77 6.45 9.77 8.79L9.77 8.79L9.77 8.79Q9.77 10.22 9.25 11.35L9.25 11.35L9.25 11.35Q8.72 12.49 7.68 13.15L7.68 13.15L7.68 13.15Q6.64 13.80 5.12 13.80L5.12 13.80L0.73 13.80ZM3.16 11.35L3.16 11.35Q3.16 12.35 3.58 12.72L3.58 12.72L3.58 12.72Q3.99 13.09 4.68 13.09L4.68 13.09L4.68 13.09Q8.25 13.09 8.25 8.76L8.25 8.76L8.25 8.76Q8.25 7.59 7.84 6.58L7.84 6.58L7.84 6.58Q7.43 5.57 6.60 4.96L6.60 4.96L6.60 4.96Q5.77 4.34 4.54 4.34L4.54 4.34L4.54 4.34Q3.16 4.34 3.16 4.98L3.16 4.98L3.16 11.35ZM18.09 6.31L18.09 6.31Q18.09 7.10 17.72 7.73L17.72 7.73L17.72 7.73Q17.35 8.36 16.62 8.71L16.62 8.71L16.62 8.71Q17.56 9.02 18.08 9.65L18.08 9.65L18.08 9.65Q18.61 10.28 18.61 11.05L18.61 11.05L18.61 11.05Q18.61 12.32 17.74 13.06L17.74 13.06L17.74 13.06Q16.87 13.80 14.97 13.80L14.97 13.80L11.06 13.80L10.89 13.33L11.21 13.24L11.21 13.24Q11.75 13.09 11.93 12.84L11.93 12.84L11.93 12.84Q12.11 12.59 12.11 11.94L12.11 11.94L12.11 5.03L12.11 5.03Q12.11 4.84 12.04 4.77L12.04 4.77L12.04 4.77Q11.97 4.69 11.80 4.69L11.80 4.69L10.99 4.69L10.82 4.17L10.82 4.17Q11.42 3.93 12.40 3.74L12.40 3.74L12.40 3.74Q13.38 3.56 14.29 3.56L14.29 3.56L14.29 3.56Q16.21 3.56 17.15 4.33L17.15 4.33L17.15 4.33Q18.09 5.10 18.09 6.31L18.09 6.31ZM13.50 11.24L13.50 11.24Q13.50 12.39 13.96 12.73L13.96 12.73L13.96 12.73Q14.42 13.08 15.05 13.08L15.05 13.08L15.05 13.08Q16.03 13.08 16.59 12.50L16.59 12.50L16.59 12.50Q17.15 11.91 17.15 10.98L17.15 10.98L17.15 10.98Q17.15 10.44 16.88 10.00L16.88 10.00L16.88 10.00Q16.60 9.56 16.10 9.30L16.10 9.30L16.10 9.30Q15.60 9.03 14.92 9.03L14.92 9.03L14.92 9.03Q14.69 9.03 14.43 8.97L14.43 8.97L14.43 8.97Q14.17 8.92 14.01 8.85L14.01 8.85L14.01 8.85Q13.80 8.75 13.80 8.54L13.80 8.54L13.80 8.54Q13.80 8.29 14 8.29L14 8.29L14 8.29Q14.06 8.29 14.23 8.34L14.23 8.34L14.23 8.34Q14.41 8.39 14.70 8.39L14.70 8.39L14.70 8.39Q15.65 8.39 16.18 7.83L16.18 7.83L16.18 7.83Q16.70 7.27 16.70 6.34L16.70 6.34L16.70 6.34Q16.70 5.46 16.11 4.90L16.11 4.90L16.11 4.90Q15.51 4.34 14.43 4.34L14.43 4.34L14.43 4.34Q13.50 4.34 13.50 4.98L13.50 4.98L13.50 11.24ZM24.99 12.52L24.99 12.52Q24.42 13.33 23.81 13.66L23.81 13.66L23.81 13.66Q23.21 14 22.51 14L22.51 14L22.51 14Q21.84 14 21.27 13.62L21.27 13.62L21.27 13.62Q20.69 13.23 20.35 12.46L20.35 12.46L20.35 12.46Q20.01 11.69 20.01 10.60L20.01 10.60L20.01 10.60Q20.01 9.39 20.45 8.50L20.45 8.50L20.45 8.50Q20.89 7.62 21.71 7.14L21.71 7.14L21.71 7.14Q22.53 6.66 23.63 6.66L23.63 6.66L23.63 6.66Q24.18 6.66 25.17 6.85L25.17 6.85L25.17 6.85Q26.01 6.99 26.43 7.01L26.43 7.01L26.59 7.20L26.42 7.45L26.42 7.45Q26.32 7.59 26.28 7.71L26.28 7.71L26.28 7.71Q26.24 7.83 26.24 7.99L26.24 7.99L26.24 12.57L26.24 12.57Q26.24 13.01 26.66 13.01L26.66 13.01L26.66 13.01Q27.01 13.01 27.36 12.75L27.36 12.75L27.62 13.12L27.62 13.12Q27.26 13.52 26.84 13.76L26.84 13.76L26.84 13.76Q26.42 14 26.07 14L26.07 14L26.07 14Q25.49 14 25.24 13.65L25.24 13.65L25.24 13.65Q24.99 13.30 24.99 12.52L24.99 12.52ZM21.48 10.33L21.48 10.33Q21.48 11.66 21.93 12.29L21.93 12.29L21.93 12.29Q22.39 12.92 23.07 12.92L23.07 12.92L23.07 12.92Q23.63 12.92 24.12 12.61L24.12 12.61L24.12 12.61Q24.61 12.29 24.99 11.65L24.99 11.65L24.99 7.87L24.99 7.87Q24.35 7.43 23.62 7.43L23.62 7.43L23.62 7.43Q22.60 7.43 22.04 8.20L22.04 8.20L22.04 8.20Q21.48 8.96 21.48 10.33L21.48 10.33ZM30.69 11.56L30.69 11.56Q30.69 12.22 30.79 12.61L30.79 12.61L30.79 12.61Q30.88 13.01 31.14 13.37L31.14 13.37L31.30 13.59L31.14 13.80L28.69 13.80L28.53 13.37L28.83 13.30L28.83 13.30Q29.18 13.22 29.30 13.00L29.30 13.00L29.30 13.00Q29.41 12.78 29.41 12.25L29.41 12.25L29.41 8.32L29.41 8.32Q29.41 8.15 29.35 8.08L29.35 8.08L29.35 8.08Q29.29 8.01 29.13 8.01L29.13 8.01L28.52 8.01L28.39 7.64L28.39 7.64Q28.80 7.28 29.32 7.04L29.32 7.04L29.32 7.04Q29.85 6.80 30.24 6.80L30.24 6.80L30.24 6.80Q30.44 6.80 30.56 6.93L30.56 6.93L30.56 6.93Q30.69 7.06 30.69 7.25L30.69 7.25L30.69 8.75L30.69 8.75Q31.05 7.84 31.78 7.25L31.78 7.25L31.78 7.25Q32.51 6.66 33.31 6.66L33.31 6.66L33.31 6.66Q34.29 6.66 34.73 7.27L34.73 7.27L34.73 7.27Q35.18 7.87 35.18 9.18L35.18 9.18L35.18 12.57L35.18 12.57Q35.18 13.05 35.60 13.05L35.60 13.05L35.60 13.05Q35.92 13.05 36.30 12.75L36.30 12.75L36.57 13.12L36.57 13.12Q36.20 13.52 35.78 13.76L35.78 13.76L35.78 13.76Q35.36 14 35 14L35 14L35 14Q34.43 14 34.17 13.65L34.17 13.65L34.17 13.65Q33.92 13.30 33.92 12.52L33.92 12.52L33.92 9.18L33.92 9.18Q33.92 7.76 32.72 7.76L32.72 7.76L32.72 7.76Q32.12 7.76 31.66 8.23L31.66 8.23L31.66 8.23Q31.21 8.71 30.95 9.58L30.95 9.58L30.95 9.58Q30.69 10.44 30.69 11.56L30.69 11.56ZM40.52 10.54L40.39 10.50L40.39 10.50Q40.12 10.43 40.12 10.21L40.12 10.21L40.12 10.21Q40.12 10.09 40.17 10.02L40.17 10.02L40.17 10.02Q40.22 9.94 40.33 9.94L40.33 9.94L40.33 9.94Q40.38 9.94 40.61 10.00L40.61 10.00L40.61 10.00Q40.85 10.07 41.23 10.07L41.23 10.07L41.23 10.07Q41.75 10.07 42.11 9.86L42.11 9.86L42.11 9.86Q42.48 9.65 42.66 9.31L42.66 9.31L42.66 9.31Q42.84 8.97 42.84 8.62L42.84 8.62L42.84 8.62Q42.84 8.20 42.59 7.92L42.59 7.92L42.59 7.92Q42.35 7.63 41.90 7.63L41.90 7.63L41.90 7.63Q41.22 7.63 40.70 8.12L40.70 8.12L40.70 8.12Q40.18 8.61 39.91 9.51L39.91 9.51L39.91 9.51Q39.63 10.40 39.63 11.56L39.63 11.56L39.63 11.56Q39.63 12.24 39.73 12.63L39.73 12.63L39.73 12.63Q39.83 13.03 40.08 13.37L40.08 13.37L40.25 13.59L40.08 13.80L37.63 13.80L37.48 13.37L37.77 13.30L37.77 13.30Q38.12 13.22 38.24 13.00L38.24 13.00L38.24 13.00Q38.36 12.78 38.36 12.25L38.36 12.25L38.36 4.37L38.36 4.37Q38.36 4.20 38.30 4.13L38.30 4.13L38.30 4.13Q38.23 4.06 38.08 4.06L38.08 4.06L37.46 4.06L37.34 3.70L37.34 3.70Q37.74 3.33 38.27 3.09L38.27 3.09L38.27 3.09Q38.79 2.86 39.19 2.86L39.19 2.86L39.19 2.86Q39.38 2.86 39.51 2.98L39.51 2.98L39.51 2.98Q39.63 3.11 39.63 3.30L39.63 3.30L39.63 8.75L39.63 8.75Q39.98 7.83 40.69 7.25L40.69 7.25L40.69 7.25Q41.40 6.66 42.17 6.66L42.17 6.66L42.17 6.66Q43.09 6.66 43.60 7.20L43.60 7.20L43.60 7.20Q44.10 7.73 44.10 8.50L44.10 8.50L44.10 8.50Q44.10 8.99 43.85 9.46L43.85 9.46L43.85 9.46Q43.61 9.93 43.14 10.26L43.14 10.26L43.14 10.26Q42.67 10.58 42.03 10.65L42.03 10.65L43.12 12.73L43.12 12.73Q43.23 12.95 43.37 13.03L43.37 13.03L43.37 13.03Q43.51 13.12 43.71 13.12L43.71 13.12L43.71 13.12Q43.89 13.12 44.09 13.02L44.09 13.02L44.09 13.02Q44.28 12.92 44.45 12.75L44.45 12.75L44.74 13.12L44.74 13.12Q44.10 14 43.25 14L43.25 14L43.25 14Q42.83 14 42.54 13.83L42.54 13.83L42.54 13.83Q42.25 13.66 42.05 13.37L42.05 13.37L42.05 13.37Q41.85 13.08 41.55 12.52L41.55 12.52L40.52 10.54Z"></path></g><defs data-v-fde0c5aa=""><!----></defs><g data-v-fde0c5aa="" id="b997141d-6887-4584-bd3c-8acfdba50949" stroke="none" fill="#FFD009" transform="matrix(2.1823658570337776,0,0,2.1823658570337776,40,115.08214628745955)"><path d="M4.029 14.362L14.362 4.028l.707.707L4.736 15.07zM17.135 27.47L27.47 17.135l.707.707-10.333 10.333zM4.029 17.841l.707-.707 10.333 10.334-.707.707zM17.135 4.735l.708-.707L28.176 14.36l-.707.707z"></path><g><path d="M16 1.414l1.683 1.683L16 4.779l-1.683-1.683L16 1.414M16 0l-3.097 3.097L16 6.194l3.097-3.097L16 0zM16 27.221l1.683 1.683L16 30.586l-1.683-1.683L16 27.221m0-1.415l-3.097 3.097L16 32l3.097-3.097L16 25.806zM3.097 14.317L4.779 16l-1.683 1.683L1.414 16l1.683-1.683m0-1.414L0 16l3.097 3.097L6.194 16l-3.097-3.097zM28.903 14.317L30.586 16l-1.683 1.683L27.221 16l1.682-1.683m0-1.414L25.806 16l3.097 3.097L32 16l-3.097-3.097z"></path></g></g><defs data-v-fde0c5aa=""><!----></defs><g data-v-fde0c5aa="" id="32cdc9a3-ee83-4e2f-b5a0-72e7cfe69bdd" fill="#ffffff" transform="matrix(0.42473614769915674,0,0,0.42473614769915674,122.53839212675473,165.6559012657577)"><path d="M7.81 9.52C7.39 9.11 6.79 8.86 6.01 8.75C6.33 8.67 6.61 8.55 6.86 8.40C7.11 8.25 7.34 8.08 7.50 7.87C7.67 7.66 7.81 7.43 7.90 7.20C7.98 6.96 8.04 6.71 8.04 6.44C8.04 6.05 7.95 5.68 7.83 5.38C7.70 5.07 7.49 4.80 7.22 4.58C6.96 4.37 6.62 4.20 6.20 4.09C5.78 3.98 5.29 3.92 4.73 3.92L1.89 3.92L0.70 3.92L0.70 4.19C0.70 4.34 0.80 4.42 0.98 4.44L1.12 4.44C1.19 4.44 1.29 4.45 1.43 4.45C1.57 4.45 1.72 4.47 1.89 4.47L1.89 13.26C1.72 13.26 1.57 13.27 1.43 13.27C1.29 13.27 1.19 13.29 1.12 13.29L0.98 13.29C0.80 13.30 0.71 13.38 0.71 13.54L0.71 13.82L1.89 13.82L5.10 13.82C5.63 13.82 6.09 13.76 6.51 13.64C6.93 13.51 7.28 13.34 7.56 13.10C7.84 12.87 8.06 12.59 8.22 12.25C8.37 11.91 8.44 11.54 8.44 11.12C8.44 10.46 8.23 9.93 7.81 9.52ZM2.60 4.48L4.73 4.48C5.61 4.48 6.27 4.66 6.69 5.00C7.11 5.35 7.32 5.84 7.32 6.51C7.32 6.76 7.28 7.03 7.18 7.27C7.08 7.50 6.93 7.71 6.72 7.91C6.51 8.11 6.24 8.26 5.92 8.37C5.60 8.48 5.21 8.55 4.75 8.55L2.60 8.55ZM7.06 12.68C6.61 13.06 5.95 13.24 5.08 13.24L2.60 13.24L2.60 9.07L5.10 9.07C5.52 9.07 5.88 9.11 6.20 9.21C6.52 9.31 6.80 9.45 7.03 9.62C7.25 9.80 7.42 10.00 7.55 10.25C7.66 10.50 7.73 10.79 7.73 11.10C7.73 11.79 7.50 12.31 7.06 12.68ZM17.82 3.92L16.63 3.92L16.63 4.19C16.63 4.34 16.73 4.42 16.91 4.44L17.05 4.44C17.12 4.44 17.22 4.45 17.36 4.45C17.50 4.45 17.65 4.47 17.82 4.47L17.82 13.26C17.65 13.26 17.50 13.27 17.36 13.27C17.22 13.27 17.12 13.29 17.05 13.29L16.91 13.29C16.73 13.30 16.65 13.38 16.65 13.54L16.65 13.82L17.82 13.82L23.76 13.82L23.76 13.22L23.76 11.76L23.41 11.76C23.21 11.76 23.13 11.89 23.11 12.11C23.11 12.14 23.10 12.19 23.10 12.29C23.10 12.39 23.10 12.53 23.09 12.74C23.07 12.95 23.06 13.09 23.06 13.22L18.54 13.22L18.54 9.09L22.48 9.09L22.48 8.51L18.54 8.51L18.54 4.51L23.06 4.51C23.09 5.12 23.11 5.50 23.11 5.63C23.13 5.85 23.21 5.96 23.41 5.96L23.76 5.96L23.76 4.51L23.76 3.92ZM38.07 9.91C37.93 9.65 37.73 9.39 37.49 9.21C37.25 9.03 37.00 8.88 36.71 8.75C36.41 8.62 36.09 8.51 35.78 8.41C35.48 8.32 35.17 8.20 34.87 8.11C34.58 7.99 34.31 7.87 34.08 7.71C33.84 7.56 33.66 7.38 33.52 7.15C33.38 6.93 33.29 6.65 33.29 6.31C33.29 6.06 33.35 5.82 33.45 5.59C33.54 5.35 33.68 5.15 33.87 4.97C34.05 4.79 34.27 4.65 34.55 4.55C34.83 4.45 35.14 4.40 35.50 4.40C36.18 4.40 36.79 4.51 37.35 4.75C37.39 5.54 37.42 5.99 37.42 6.06C37.44 6.29 37.52 6.41 37.72 6.41L38.05 6.41L38.05 4.38C37.17 4.00 36.33 3.81 35.50 3.81C35.04 3.81 34.64 3.88 34.27 4.02C33.91 4.16 33.61 4.34 33.38 4.58C33.14 4.82 32.94 5.08 32.82 5.39C32.69 5.70 32.63 6.02 32.63 6.36C32.63 6.78 32.70 7.14 32.84 7.42C32.98 7.70 33.18 7.92 33.42 8.12C33.66 8.32 33.91 8.46 34.20 8.58C34.50 8.71 34.82 8.82 35.13 8.92C35.43 9.02 35.73 9.11 36.04 9.21C36.33 9.31 36.60 9.45 36.83 9.60C37.07 9.76 37.25 9.94 37.39 10.16C37.53 10.39 37.60 10.68 37.60 11.03C37.60 11.35 37.55 11.66 37.44 11.94C37.32 12.22 37.17 12.46 36.96 12.67C36.75 12.88 36.48 13.05 36.18 13.16C35.87 13.29 35.52 13.33 35.13 13.33C34.34 13.33 33.68 13.20 33.15 12.95C33.14 12.75 33.14 12.54 33.12 12.32C33.11 12.10 33.11 11.91 33.10 11.76C33.08 11.61 33.08 11.52 33.08 11.51C33.07 11.28 32.97 11.17 32.77 11.17L32.44 11.17L32.44 13.02L32.44 13.20L32.44 13.38C33.29 13.75 34.17 13.93 35.10 13.93C35.60 13.93 36.05 13.85 36.44 13.69C36.83 13.54 37.17 13.31 37.44 13.05C37.70 12.78 37.93 12.46 38.07 12.10C38.21 11.73 38.28 11.34 38.28 10.92C38.28 10.51 38.21 10.18 38.07 9.91ZM54.05 3.92L53.86 3.92L46.56 3.92L46.35 3.92L46.26 3.92L46.26 5.96L46.61 5.96C46.80 5.96 46.89 5.85 46.90 5.63C46.90 5.53 46.93 5.17 46.96 4.52L49.85 4.52L49.85 13.26C49.69 13.26 49.55 13.27 49.41 13.27C49.27 13.27 49.15 13.29 49.08 13.29L48.96 13.29C48.78 13.30 48.68 13.38 48.68 13.54L48.68 13.82L49.85 13.82L50.57 13.82L51.76 13.82L51.76 13.54C51.76 13.38 51.66 13.30 51.48 13.29L51.34 13.29C51.27 13.29 51.17 13.27 51.03 13.27C50.89 13.27 50.74 13.26 50.57 13.26L50.57 4.52L53.45 4.52C53.49 5.24 53.51 5.60 53.51 5.63C53.52 5.85 53.62 5.96 53.82 5.96L54.15 5.96L54.15 3.92ZM81.63 6.80C81.41 6.19 81.09 5.68 80.67 5.25C80.25 4.82 79.76 4.48 79.18 4.26C78.61 4.03 77.95 3.92 77.25 3.92L73.82 3.92L72.63 3.92L72.63 4.19C72.63 4.34 72.73 4.42 72.91 4.44L73.05 4.44C73.12 4.44 73.22 4.45 73.36 4.45C73.50 4.45 73.65 4.47 73.82 4.47L73.82 13.26C73.65 13.26 73.50 13.27 73.36 13.27C73.22 13.27 73.12 13.29 73.05 13.29L72.91 13.29C72.73 13.30 72.63 13.38 72.63 13.54L72.63 13.82L73.82 13.82L77.25 13.82C77.95 13.82 78.61 13.71 79.18 13.48C79.76 13.26 80.25 12.92 80.67 12.49C81.09 12.05 81.41 11.54 81.63 10.92C81.86 10.30 81.98 9.63 81.98 8.86C81.98 8.11 81.86 7.42 81.63 6.80ZM80.95 10.72C80.75 11.27 80.50 11.72 80.15 12.10C79.80 12.47 79.38 12.75 78.89 12.95C78.40 13.15 77.85 13.24 77.25 13.24L74.54 13.24L74.54 4.49L77.25 4.49C77.85 4.49 78.40 4.59 78.89 4.79C79.38 4.98 79.80 5.26 80.15 5.64C80.50 6.02 80.75 6.47 80.95 7.01C81.14 7.56 81.24 8.18 81.24 8.86C81.24 9.56 81.14 10.18 80.95 10.72ZM91.46 3.92L90.27 3.92L90.27 4.19C90.27 4.34 90.37 4.42 90.55 4.44L90.69 4.44C90.76 4.44 90.86 4.45 91 4.45C91.14 4.45 91.29 4.47 91.46 4.47L91.46 13.26C91.29 13.26 91.14 13.27 91 13.27C90.86 13.27 90.76 13.29 90.69 13.29L90.55 13.29C90.37 13.30 90.29 13.38 90.29 13.54L90.29 13.82L91.46 13.82L97.40 13.82L97.40 13.22L97.40 11.76L97.05 11.76C96.85 11.76 96.77 11.89 96.75 12.11C96.75 12.14 96.74 12.19 96.74 12.29C96.74 12.39 96.74 12.53 96.73 12.74C96.71 12.95 96.70 13.09 96.70 13.22L92.18 13.22L92.18 9.09L96.12 9.09L96.12 8.51L92.18 8.51L92.18 4.51L96.70 4.51C96.73 5.12 96.75 5.50 96.75 5.63C96.77 5.85 96.85 5.96 97.05 5.96L97.40 5.96L97.40 4.51L97.40 3.92ZM113.11 3.92L112.76 3.92L107.17 3.92L105.98 3.92L105.98 4.19C105.98 4.34 106.08 4.42 106.26 4.44L106.40 4.44C106.47 4.44 106.57 4.45 106.71 4.45C106.85 4.45 107.00 4.47 107.17 4.47L107.17 13.26C107.00 13.26 106.85 13.27 106.71 13.27C106.57 13.27 106.47 13.29 106.40 13.29L106.26 13.29C106.08 13.30 105.98 13.38 105.98 13.54L105.98 13.82L107.17 13.82L107.88 13.82L109.06 13.82L109.06 13.54C109.06 13.38 108.98 13.30 108.79 13.29L108.65 13.29C108.58 13.29 108.49 13.27 108.35 13.27C108.21 13.27 108.05 13.26 107.88 13.26L107.88 9.27L111.58 9.27L111.58 8.67L107.88 8.67L107.88 4.51L112.49 4.51C112.52 5.18 112.55 5.56 112.55 5.63C112.56 5.85 112.66 5.96 112.85 5.96L113.19 5.96L113.19 3.92ZM124.12 4.44C124.31 4.42 124.39 4.34 124.39 4.19L124.39 3.91L123.21 3.91L122.50 3.91L121.31 3.91L121.31 4.19C121.31 4.34 121.41 4.42 121.59 4.44L121.73 4.44C121.80 4.44 121.90 4.45 122.04 4.45C122.18 4.45 122.33 4.47 122.50 4.47L122.50 13.26C122.33 13.26 122.18 13.27 122.04 13.27C121.90 13.27 121.80 13.29 121.73 13.29L121.59 13.29C121.41 13.30 121.31 13.38 121.31 13.54L121.31 13.82L122.50 13.82L123.21 13.82L124.39 13.82L124.39 13.54C124.39 13.38 124.31 13.30 124.12 13.29L123.98 13.29C123.91 13.29 123.82 13.27 123.68 13.27C123.54 13.27 123.38 13.26 123.21 13.26L123.21 4.47C123.38 4.47 123.54 4.45 123.68 4.45C123.82 4.45 123.91 4.44 123.98 4.44ZM145.92 4.44C146.10 4.42 146.19 4.34 146.19 4.19L146.19 3.91L145.01 3.91L144.30 3.91L143.11 3.91L143.11 4.19C143.11 4.34 143.21 4.42 143.39 4.44L143.53 4.44C143.60 4.44 143.70 4.45 143.84 4.45C143.98 4.45 144.13 4.47 144.30 4.47L144.30 13.26C144.13 13.26 143.98 13.27 143.84 13.27C143.70 13.27 143.60 13.29 143.53 13.29L143.39 13.29C143.21 13.30 143.11 13.38 143.11 13.54L143.11 13.82L144.30 13.82L145.01 13.82L146.19 13.82L146.19 13.54C146.19 13.38 146.10 13.30 145.92 13.29L145.78 13.29C145.71 13.29 145.61 13.27 145.47 13.27C145.33 13.27 145.18 13.26 145.01 13.26L145.01 4.47C145.18 4.47 145.33 4.45 145.47 4.45C145.61 4.45 145.71 4.44 145.78 4.44ZM163.37 3.92L162.74 3.92L161.52 3.92L161.52 4.19C161.52 4.34 161.62 4.42 161.80 4.44L161.94 4.44C162.01 4.44 162.12 4.45 162.26 4.45C162.40 4.45 162.57 4.47 162.74 4.47L162.74 12.22C162.74 12.35 162.74 12.49 162.75 12.63L156.34 4.05C156.30 3.99 156.27 3.95 156.23 3.93C156.18 3.92 156.14 3.91 156.07 3.91L155.72 3.91L154.53 3.91L154.53 4.19C154.53 4.34 154.63 4.42 154.81 4.44L154.95 4.44C155.02 4.44 155.12 4.45 155.26 4.45C155.40 4.45 155.55 4.47 155.72 4.47L155.72 13.26C155.55 13.26 155.40 13.27 155.26 13.27C155.12 13.27 155.02 13.29 154.95 13.29L154.81 13.29C154.63 13.30 154.53 13.38 154.53 13.54L154.53 13.82L155.72 13.82L156.34 13.82L157.56 13.82L157.56 13.54C157.56 13.38 157.46 13.30 157.28 13.29L157.14 13.29C157.07 13.29 156.94 13.27 156.80 13.27C156.66 13.27 156.51 13.26 156.34 13.26L156.34 5.49C156.34 5.36 156.34 5.22 156.32 5.08L162.76 13.68C162.83 13.78 162.90 13.82 163.02 13.82L163.37 13.82L163.37 4.47C163.53 4.47 163.67 4.45 163.81 4.45C163.95 4.45 164.07 4.44 164.14 4.44L164.26 4.44C164.44 4.42 164.54 4.34 164.54 4.19L164.54 3.92ZM190.47 3.92L190.27 3.92L182.98 3.92L182.77 3.92L182.67 3.92L182.67 5.96L183.02 5.96C183.22 5.96 183.30 5.85 183.32 5.63C183.32 5.53 183.34 5.17 183.37 4.52L186.27 4.52L186.27 13.26C186.10 13.26 185.96 13.27 185.82 13.27C185.68 13.27 185.57 13.29 185.50 13.29L185.37 13.29C185.19 13.30 185.09 13.38 185.09 13.54L185.09 13.82L186.27 13.82L186.98 13.82L188.17 13.82L188.17 13.54C188.17 13.38 188.08 13.30 187.89 13.29L187.75 13.29C187.68 13.29 187.59 13.27 187.45 13.27C187.31 13.27 187.15 13.26 186.98 13.26L186.98 4.52L189.87 4.52C189.91 5.24 189.92 5.60 189.92 5.63C189.94 5.85 190.04 5.96 190.23 5.96L190.57 5.96L190.57 3.92ZM208.40 4.44C208.59 4.42 208.68 4.34 208.68 4.19L208.68 3.92L207.51 3.92L206.78 3.92L205.60 3.92L205.60 4.19C205.60 4.34 205.70 4.42 205.88 4.44L206.01 4.44C206.08 4.44 206.19 4.45 206.33 4.45C206.47 4.45 206.61 4.47 206.78 4.47L206.78 8.53L200.58 8.53L200.58 4.47C200.75 4.47 200.90 4.45 201.04 4.45C201.18 4.45 201.28 4.44 201.35 4.44L201.49 4.44C201.67 4.42 201.75 4.34 201.75 4.19L201.75 3.92L200.58 3.92L199.86 3.92L198.67 3.92L198.67 4.19C198.67 4.34 198.77 4.42 198.95 4.44L199.09 4.44C199.16 4.44 199.26 4.45 199.40 4.45C199.54 4.45 199.70 4.47 199.86 4.47L199.86 13.26C199.70 13.26 199.54 13.27 199.40 13.27C199.26 13.27 199.16 13.29 199.09 13.29L198.95 13.29C198.77 13.30 198.67 13.38 198.67 13.54L198.67 13.82L199.86 13.82L200.58 13.82L201.75 13.82L201.75 13.54C201.75 13.38 201.67 13.30 201.49 13.29L201.35 13.29C201.28 13.29 201.18 13.27 201.04 13.27C200.90 13.27 200.75 13.26 200.58 13.26L200.58 9.07L206.78 9.07L206.78 13.26C206.61 13.26 206.47 13.27 206.33 13.27C206.19 13.27 206.08 13.29 206.01 13.29L205.88 13.29C205.70 13.30 205.60 13.38 205.60 13.54L205.60 13.82L206.78 13.82L207.51 13.82L208.68 13.82L208.68 13.54C208.68 13.38 208.59 13.30 208.40 13.29L208.28 13.29C208.21 13.29 208.10 13.27 207.96 13.27C207.82 13.27 207.68 13.26 207.51 13.26L207.51 4.47C207.68 4.47 207.82 4.45 207.96 4.45C208.10 4.45 208.21 4.44 208.28 4.44ZM218.22 3.92L217.03 3.92L217.03 4.19C217.03 4.34 217.13 4.42 217.31 4.44L217.45 4.44C217.52 4.44 217.62 4.45 217.76 4.45C217.90 4.45 218.05 4.47 218.22 4.47L218.22 13.26C218.05 13.26 217.90 13.27 217.76 13.27C217.62 13.27 217.52 13.29 217.45 13.29L217.31 13.29C217.13 13.30 217.04 13.38 217.04 13.54L217.04 13.82L218.22 13.82L224.15 13.82L224.15 13.22L224.15 11.76L223.80 11.76C223.61 11.76 223.52 11.89 223.51 12.11C223.51 12.14 223.50 12.19 223.50 12.29C223.50 12.39 223.50 12.53 223.48 12.74C223.47 12.95 223.45 13.09 223.45 13.22L218.93 13.22L218.93 9.09L222.88 9.09L222.88 8.51L218.93 8.51L218.93 4.51L223.45 4.51C223.48 5.12 223.51 5.50 223.51 5.63C223.52 5.85 223.61 5.96 223.80 5.96L224.15 5.96L224.15 4.51L224.15 3.92ZM256.91 3.92L256.37 3.92L256.33 3.92L254.86 3.92L254.86 4.19C254.86 4.34 254.94 4.42 255.12 4.44L255.25 4.44C255.30 4.44 255.40 4.45 255.54 4.45C255.68 4.45 255.82 4.47 255.99 4.47L253.61 12.24C253.58 12.33 253.55 12.43 253.54 12.54C253.53 12.66 253.50 12.75 253.47 12.87C253.44 12.75 253.43 12.63 253.40 12.53L253.32 12.24L250.52 4.10C250.49 4.05 250.46 3.99 250.42 3.96C250.38 3.93 250.32 3.92 250.25 3.92L250.05 3.92C249.98 3.92 249.93 3.93 249.89 3.98C249.84 4.02 249.80 4.05 249.79 4.10L246.99 12.25C246.96 12.35 246.93 12.43 246.90 12.54C246.88 12.64 246.86 12.75 246.83 12.88C246.82 12.78 246.79 12.67 246.76 12.54C246.75 12.43 246.72 12.33 246.69 12.24L244.31 4.47C244.48 4.47 244.62 4.45 244.75 4.45C244.87 4.45 244.96 4.44 245.01 4.44L245.13 4.44C245.31 4.42 245.41 4.34 245.41 4.19L245.41 3.92L243.94 3.92L243.35 3.92L242.75 3.92L242.75 4.19C242.75 4.34 242.84 4.42 243.03 4.44L243.12 4.44C243.17 4.44 243.21 4.45 243.28 4.45C243.35 4.45 243.43 4.47 243.52 4.47L246.47 13.82L247.10 13.82L250.04 5.22C250.08 5.11 250.11 5.00 250.14 4.87C250.17 5.00 250.19 5.11 250.24 5.22L253.16 13.82L253.81 13.82L256.75 4.47C256.83 4.47 256.90 4.45 256.97 4.45C257.04 4.45 257.10 4.44 257.14 4.44L257.24 4.44C257.42 4.42 257.50 4.34 257.50 4.19L257.50 3.92ZM274.40 8.86C274.40 8.11 274.27 7.41 274.05 6.79C273.83 6.17 273.50 5.64 273.08 5.19C272.66 4.75 272.17 4.40 271.60 4.16C271.03 3.92 270.37 3.79 269.67 3.79C268.97 3.79 268.34 3.92 267.76 4.16C267.19 4.40 266.69 4.75 266.27 5.19C265.85 5.64 265.52 6.17 265.30 6.79C265.08 7.41 264.95 8.11 264.95 8.86C264.95 9.63 265.08 10.33 265.30 10.95C265.52 11.56 265.85 12.10 266.27 12.54C266.69 12.99 267.19 13.33 267.76 13.57C268.34 13.80 268.97 13.93 269.67 13.93C270.37 13.93 271.03 13.80 271.60 13.57C272.17 13.33 272.66 12.99 273.08 12.54C273.50 12.10 273.83 11.56 274.05 10.95C274.27 10.33 274.40 9.63 274.40 8.86ZM273.64 8.86C273.64 9.56 273.56 10.18 273.36 10.72C273.17 11.27 272.90 11.75 272.55 12.12C272.20 12.50 271.78 12.81 271.29 13.01C270.80 13.20 270.27 13.30 269.67 13.30C269.08 13.30 268.55 13.20 268.06 13.01C267.57 12.81 267.15 12.50 266.80 12.12C266.45 11.75 266.17 11.27 265.97 10.72C265.78 10.18 265.69 9.56 265.69 8.86C265.69 8.18 265.78 7.55 265.97 7.00C266.17 6.45 266.45 5.98 266.80 5.60C267.15 5.22 267.57 4.91 268.06 4.72C268.55 4.52 269.08 4.41 269.67 4.41C270.27 4.41 270.80 4.52 271.29 4.72C271.78 4.91 272.20 5.22 272.55 5.60C272.90 5.98 273.17 6.45 273.36 7.00C273.56 7.55 273.64 8.18 273.64 8.86ZM290.67 13.29L290.57 13.29L290.39 13.29C290.30 13.29 290.22 13.27 290.14 13.27L287.17 9.53C287.08 9.42 286.97 9.32 286.86 9.25C287.29 9.21 287.69 9.11 288.04 8.96C288.39 8.81 288.67 8.61 288.92 8.37C289.16 8.13 289.35 7.85 289.48 7.55C289.60 7.24 289.67 6.89 289.67 6.51C289.67 5.66 289.39 5.03 288.83 4.58C288.27 4.14 287.42 3.92 286.27 3.92L283.86 3.92L282.69 3.92L282.69 4.19C282.69 4.34 282.77 4.42 282.95 4.44L283.09 4.44C283.16 4.44 283.26 4.45 283.40 4.45C283.54 4.45 283.70 4.47 283.86 4.47L283.86 13.26C283.70 13.26 283.54 13.27 283.40 13.27C283.26 13.27 283.16 13.29 283.09 13.29L282.95 13.29C282.77 13.30 282.67 13.38 282.67 13.54L282.67 13.82L283.86 13.82L284.58 13.82L285.75 13.82L285.75 13.54C285.75 13.38 285.66 13.30 285.47 13.29L285.33 13.29C285.26 13.29 285.17 13.27 285.03 13.27C284.89 13.27 284.75 13.26 284.58 13.26L284.58 9.34L285.75 9.34C285.95 9.34 286.09 9.35 286.17 9.39C286.26 9.44 286.34 9.52 286.43 9.62L289.60 13.64C289.66 13.71 289.70 13.75 289.76 13.78C289.81 13.80 289.88 13.82 289.95 13.82L290.02 13.82L290.57 13.82L290.93 13.82L290.93 13.54C290.93 13.38 290.85 13.30 290.67 13.29ZM286.17 8.81L284.58 8.81L284.58 4.48L286.27 4.48C287.15 4.48 287.83 4.66 288.29 5.00C288.75 5.33 288.97 5.87 288.97 6.57C288.97 6.92 288.92 7.21 288.79 7.49C288.67 7.77 288.47 7.99 288.23 8.19C287.99 8.39 287.70 8.55 287.35 8.65C287.00 8.75 286.61 8.81 286.17 8.81ZM305.51 11.97C305.31 11.97 305.23 12.08 305.21 12.31C305.21 12.32 305.21 12.38 305.20 12.43C305.19 12.49 305.19 12.59 305.17 12.71C305.16 12.84 305.14 13.01 305.13 13.20L301.04 13.20L301.04 4.47C301.21 4.47 301.35 4.45 301.49 4.45C301.63 4.45 301.74 4.44 301.81 4.44L301.94 4.44C302.12 4.42 302.22 4.34 302.22 4.19L302.22 3.92L301.04 3.92L300.33 3.92L299.14 3.92L299.14 4.19C299.14 4.34 299.24 4.42 299.42 4.44L299.56 4.44C299.63 4.44 299.73 4.45 299.87 4.45C300.01 4.45 300.16 4.47 300.33 4.47L300.33 13.26C300.16 13.26 300.01 13.27 299.87 13.27C299.73 13.27 299.63 13.29 299.56 13.29L299.42 13.29C299.24 13.30 299.14 13.38 299.14 13.54L299.14 13.82L300.33 13.82L305.61 13.82L305.73 13.82L305.86 13.82L305.86 13.55L305.86 12.99L305.86 11.97L305.58 11.97ZM323.29 6.80C323.06 6.19 322.74 5.68 322.32 5.25C321.90 4.82 321.41 4.48 320.84 4.26C320.26 4.03 319.61 3.92 318.91 3.92L315.48 3.92L314.29 3.92L314.29 4.19C314.29 4.34 314.38 4.42 314.57 4.44L314.71 4.44C314.78 4.44 314.87 4.45 315.01 4.45C315.15 4.45 315.31 4.47 315.48 4.47L315.48 13.26C315.31 13.26 315.15 13.27 315.01 13.27C314.87 13.27 314.78 13.29 314.71 13.29L314.57 13.29C314.38 13.30 314.29 13.38 314.29 13.54L314.29 13.82L315.48 13.82L318.91 13.82C319.61 13.82 320.26 13.71 320.84 13.48C321.41 13.26 321.90 12.92 322.32 12.49C322.74 12.05 323.06 11.54 323.29 10.92C323.51 10.30 323.64 9.63 323.64 8.86C323.64 8.11 323.51 7.42 323.29 6.80ZM322.60 10.72C322.41 11.27 322.15 11.72 321.80 12.10C321.45 12.47 321.03 12.75 320.54 12.95C320.05 13.15 319.51 13.24 318.91 13.24L316.19 13.24L316.19 4.49L318.91 4.49C319.51 4.49 320.05 4.59 320.54 4.79C321.03 4.98 321.45 5.26 321.80 5.64C322.15 6.02 322.41 6.47 322.60 7.01C322.80 7.56 322.90 8.18 322.90 8.86C322.90 9.56 322.80 10.18 322.60 10.72Z"></path></g></svg>