<svg data-v-423bf9ae="" xmlns="http://www.w3.org/2000/svg" viewBox="0 0 238.3303541710327 60" class="font"><!----><!----><!----><g data-v-423bf9ae="" id="e18b851e-0851-4687-9ad4-dee2f1227542" fill="white" transform="matrix(5.385996704430117,0,0,5.385996704430117,-2.6391369846831907,-15.403951770615436)"><path d="M0.73 13.80L0.56 13.33L0.88 13.24L0.88 13.24Q1.33 13.12 1.55 12.87L1.55 12.87L1.55 12.87Q1.78 12.63 1.78 12.10L1.78 12.10L1.78 5.03L1.78 5.03Q1.78 4.84 1.71 4.77L1.71 4.77L1.71 4.77Q1.64 4.69 1.47 4.69L1.47 4.69L0.66 4.69L0.49 4.17L0.49 4.17Q1.16 3.93 2.23 3.74L2.23 3.74L2.23 3.74Q3.29 3.56 4.28 3.56L4.28 3.56L4.28 3.56Q7.21 3.56 8.49 5.01L8.49 5.01L8.49 5.01Q9.77 6.45 9.77 8.79L9.77 8.79L9.77 8.79Q9.77 10.22 9.25 11.35L9.25 11.35L9.25 11.35Q8.72 12.49 7.68 13.15L7.68 13.15L7.68 13.15Q6.64 13.80 5.12 13.80L5.12 13.80L0.73 13.80ZM3.16 11.35L3.16 11.35Q3.16 12.35 3.58 12.72L3.58 12.72L3.58 12.72Q3.99 13.09 4.68 13.09L4.68 13.09L4.68 13.09Q8.25 13.09 8.25 8.76L8.25 8.76L8.25 8.76Q8.25 7.59 7.84 6.58L7.84 6.58L7.84 6.58Q7.43 5.57 6.60 4.96L6.60 4.96L6.60 4.96Q5.77 4.34 4.54 4.34L4.54 4.34L4.54 4.34Q3.16 4.34 3.16 4.98L3.16 4.98L3.16 11.35ZM18.09 6.31L18.09 6.31Q18.09 7.10 17.72 7.73L17.72 7.73L17.72 7.73Q17.35 8.36 16.62 8.71L16.62 8.71L16.62 8.71Q17.56 9.02 18.08 9.65L18.08 9.65L18.08 9.65Q18.61 10.28 18.61 11.05L18.61 11.05L18.61 11.05Q18.61 12.32 17.74 13.06L17.74 13.06L17.74 13.06Q16.87 13.80 14.97 13.80L14.97 13.80L11.06 13.80L10.89 13.33L11.21 13.24L11.21 13.24Q11.75 13.09 11.93 12.84L11.93 12.84L11.93 12.84Q12.11 12.59 12.11 11.94L12.11 11.94L12.11 5.03L12.11 5.03Q12.11 4.84 12.04 4.77L12.04 4.77L12.04 4.77Q11.97 4.69 11.80 4.69L11.80 4.69L10.99 4.69L10.82 4.17L10.82 4.17Q11.42 3.93 12.40 3.74L12.40 3.74L12.40 3.74Q13.38 3.56 14.29 3.56L14.29 3.56L14.29 3.56Q16.21 3.56 17.15 4.33L17.15 4.33L17.15 4.33Q18.09 5.10 18.09 6.31L18.09 6.31ZM13.50 11.24L13.50 11.24Q13.50 12.39 13.96 12.73L13.96 12.73L13.96 12.73Q14.42 13.08 15.05 13.08L15.05 13.08L15.05 13.08Q16.03 13.08 16.59 12.50L16.59 12.50L16.59 12.50Q17.15 11.91 17.15 10.98L17.15 10.98L17.15 10.98Q17.15 10.44 16.88 10.00L16.88 10.00L16.88 10.00Q16.60 9.56 16.10 9.30L16.10 9.30L16.10 9.30Q15.60 9.03 14.92 9.03L14.92 9.03L14.92 9.03Q14.69 9.03 14.43 8.97L14.43 8.97L14.43 8.97Q14.17 8.92 14.01 8.85L14.01 8.85L14.01 8.85Q13.80 8.75 13.80 8.54L13.80 8.54L13.80 8.54Q13.80 8.29 14 8.29L14 8.29L14 8.29Q14.06 8.29 14.23 8.34L14.23 8.34L14.23 8.34Q14.41 8.39 14.70 8.39L14.70 8.39L14.70 8.39Q15.65 8.39 16.18 7.83L16.18 7.83L16.18 7.83Q16.70 7.27 16.70 6.34L16.70 6.34L16.70 6.34Q16.70 5.46 16.11 4.90L16.11 4.90L16.11 4.90Q15.51 4.34 14.43 4.34L14.43 4.34L14.43 4.34Q13.50 4.34 13.50 4.98L13.50 4.98L13.50 11.24ZM24.99 12.52L24.99 12.52Q24.42 13.33 23.81 13.66L23.81 13.66L23.81 13.66Q23.21 14 22.51 14L22.51 14L22.51 14Q21.84 14 21.27 13.62L21.27 13.62L21.27 13.62Q20.69 13.23 20.35 12.46L20.35 12.46L20.35 12.46Q20.01 11.69 20.01 10.60L20.01 10.60L20.01 10.60Q20.01 9.39 20.45 8.50L20.45 8.50L20.45 8.50Q20.89 7.62 21.71 7.14L21.71 7.14L21.71 7.14Q22.53 6.66 23.63 6.66L23.63 6.66L23.63 6.66Q24.18 6.66 25.17 6.85L25.17 6.85L25.17 6.85Q26.01 6.99 26.43 7.01L26.43 7.01L26.59 7.20L26.42 7.45L26.42 7.45Q26.32 7.59 26.28 7.71L26.28 7.71L26.28 7.71Q26.24 7.83 26.24 7.99L26.24 7.99L26.24 12.57L26.24 12.57Q26.24 13.01 26.66 13.01L26.66 13.01L26.66 13.01Q27.01 13.01 27.36 12.75L27.36 12.75L27.62 13.12L27.62 13.12Q27.26 13.52 26.84 13.76L26.84 13.76L26.84 13.76Q26.42 14 26.07 14L26.07 14L26.07 14Q25.49 14 25.24 13.65L25.24 13.65L25.24 13.65Q24.99 13.30 24.99 12.52L24.99 12.52ZM21.48 10.33L21.48 10.33Q21.48 11.66 21.93 12.29L21.93 12.29L21.93 12.29Q22.39 12.92 23.07 12.92L23.07 12.92L23.07 12.92Q23.63 12.92 24.12 12.61L24.12 12.61L24.12 12.61Q24.61 12.29 24.99 11.65L24.99 11.65L24.99 7.87L24.99 7.87Q24.35 7.43 23.62 7.43L23.62 7.43L23.62 7.43Q22.60 7.43 22.04 8.20L22.04 8.20L22.04 8.20Q21.48 8.96 21.48 10.33L21.48 10.33ZM30.69 11.56L30.69 11.56Q30.69 12.22 30.79 12.61L30.79 12.61L30.79 12.61Q30.88 13.01 31.14 13.37L31.14 13.37L31.30 13.59L31.14 13.80L28.69 13.80L28.53 13.37L28.83 13.30L28.83 13.30Q29.18 13.22 29.30 13.00L29.30 13.00L29.30 13.00Q29.41 12.78 29.41 12.25L29.41 12.25L29.41 8.32L29.41 8.32Q29.41 8.15 29.35 8.08L29.35 8.08L29.35 8.08Q29.29 8.01 29.13 8.01L29.13 8.01L28.52 8.01L28.39 7.64L28.39 7.64Q28.80 7.28 29.32 7.04L29.32 7.04L29.32 7.04Q29.85 6.80 30.24 6.80L30.24 6.80L30.24 6.80Q30.44 6.80 30.56 6.93L30.56 6.93L30.56 6.93Q30.69 7.06 30.69 7.25L30.69 7.25L30.69 8.75L30.69 8.75Q31.05 7.84 31.78 7.25L31.78 7.25L31.78 7.25Q32.51 6.66 33.31 6.66L33.31 6.66L33.31 6.66Q34.29 6.66 34.73 7.27L34.73 7.27L34.73 7.27Q35.18 7.87 35.18 9.18L35.18 9.18L35.18 12.57L35.18 12.57Q35.18 13.05 35.60 13.05L35.60 13.05L35.60 13.05Q35.92 13.05 36.30 12.75L36.30 12.75L36.57 13.12L36.57 13.12Q36.20 13.52 35.78 13.76L35.78 13.76L35.78 13.76Q35.36 14 35 14L35 14L35 14Q34.43 14 34.17 13.65L34.17 13.65L34.17 13.65Q33.92 13.30 33.92 12.52L33.92 12.52L33.92 9.18L33.92 9.18Q33.92 7.76 32.72 7.76L32.72 7.76L32.72 7.76Q32.12 7.76 31.66 8.23L31.66 8.23L31.66 8.23Q31.21 8.71 30.95 9.58L30.95 9.58L30.95 9.58Q30.69 10.44 30.69 11.56L30.69 11.56ZM40.52 10.54L40.39 10.50L40.39 10.50Q40.12 10.43 40.12 10.21L40.12 10.21L40.12 10.21Q40.12 10.09 40.17 10.02L40.17 10.02L40.17 10.02Q40.22 9.94 40.33 9.94L40.33 9.94L40.33 9.94Q40.38 9.94 40.61 10.00L40.61 10.00L40.61 10.00Q40.85 10.07 41.23 10.07L41.23 10.07L41.23 10.07Q41.75 10.07 42.11 9.86L42.11 9.86L42.11 9.86Q42.48 9.65 42.66 9.31L42.66 9.31L42.66 9.31Q42.84 8.97 42.84 8.62L42.84 8.62L42.84 8.62Q42.84 8.20 42.59 7.92L42.59 7.92L42.59 7.92Q42.35 7.63 41.90 7.63L41.90 7.63L41.90 7.63Q41.22 7.63 40.70 8.12L40.70 8.12L40.70 8.12Q40.18 8.61 39.91 9.51L39.91 9.51L39.91 9.51Q39.63 10.40 39.63 11.56L39.63 11.56L39.63 11.56Q39.63 12.24 39.73 12.63L39.73 12.63L39.73 12.63Q39.83 13.03 40.08 13.37L40.08 13.37L40.25 13.59L40.08 13.80L37.63 13.80L37.48 13.37L37.77 13.30L37.77 13.30Q38.12 13.22 38.24 13.00L38.24 13.00L38.24 13.00Q38.36 12.78 38.36 12.25L38.36 12.25L38.36 4.37L38.36 4.37Q38.36 4.20 38.30 4.13L38.30 4.13L38.30 4.13Q38.23 4.06 38.08 4.06L38.08 4.06L37.46 4.06L37.34 3.70L37.34 3.70Q37.74 3.33 38.27 3.09L38.27 3.09L38.27 3.09Q38.79 2.86 39.19 2.86L39.19 2.86L39.19 2.86Q39.38 2.86 39.51 2.98L39.51 2.98L39.51 2.98Q39.63 3.11 39.63 3.30L39.63 3.30L39.63 8.75L39.63 8.75Q39.98 7.83 40.69 7.25L40.69 7.25L40.69 7.25Q41.40 6.66 42.17 6.66L42.17 6.66L42.17 6.66Q43.09 6.66 43.60 7.20L43.60 7.20L43.60 7.20Q44.10 7.73 44.10 8.50L44.10 8.50L44.10 8.50Q44.10 8.99 43.85 9.46L43.85 9.46L43.85 9.46Q43.61 9.93 43.14 10.26L43.14 10.26L43.14 10.26Q42.67 10.58 42.03 10.65L42.03 10.65L43.12 12.73L43.12 12.73Q43.23 12.95 43.37 13.03L43.37 13.03L43.37 13.03Q43.51 13.12 43.71 13.12L43.71 13.12L43.71 13.12Q43.89 13.12 44.09 13.02L44.09 13.02L44.09 13.02Q44.28 12.92 44.45 12.75L44.45 12.75L44.74 13.12L44.74 13.12Q44.10 14 43.25 14L43.25 14L43.25 14Q42.83 14 42.54 13.83L42.54 13.83L42.54 13.83Q42.25 13.66 42.05 13.37L42.05 13.37L42.05 13.37Q41.85 13.08 41.55 12.52L41.55 12.52L40.52 10.54Z"></path></g><!----><!----></svg>